<?xml version="1.0" encoding="UTF-8" standalone="no"?>
<svg
   xmlns:dc="http://purl.org/dc/elements/1.1/"
   xmlns:cc="http://creativecommons.org/ns#"
   xmlns:rdf="http://www.w3.org/1999/02/22-rdf-syntax-ns#"
   xmlns:svg="http://www.w3.org/2000/svg"
   xmlns="http://www.w3.org/2000/svg"
   width="100%"
   height="100%"
   viewBox="0 0 64 64"
   version="1.1"
   xml:space="preserve"
   style="fill-rule:evenodd;clip-rule:evenodd;stroke-linecap:round;stroke-linejoin:round;stroke-miterlimit:2;"
   id="svg17">
  <metadata
   id="metadata23">
    <rdf:RDF>
      <cc:Work
   rdf:about="">
        <dc:format>image/svg+xml</dc:format>

        <dc:type
   rdf:resource="http://purl.org/dc/dcmitype/StillImage" />

      </cc:Work>

    </rdf:RDF>

  </metadata>

  <defs
   id="defs21" />

  
  <path
   d="M8,51c3.702,-2.019 7.368,-3.585 11,-4.701"
   style="fill:none;stroke:#222a33;stroke-width:1.5px;"
   id="path3" />

  <path
   d="M22.764,45.301c11.421,-2.549 22.497,-0.606 33.236,5.699"
   style="fill:none;stroke:#222a33;stroke-width:1.5px;"
   id="path5" />

  <path
   d="M34.586,44l0,-8.87c0,-4.982 1.796,-9.796 5.059,-13.561c1.235,-1.425 2.209,-2.548 2.209,-2.548"
   style="fill:none;stroke:#222a33;stroke-width:1.5px;"
   id="path7" />

  <path
   d="M34.586,34.189c0,0 -0.282,-2.541 -0.542,-4.88c-0.276,-2.48 -1.42,-4.783 -3.231,-6.5c-3.158,-2.994 -7.855,-7.446 -7.855,-7.446"
   style="fill:none;stroke:#222a33;stroke-width:1.5px;"
   id="path9" />

  <path
   d="M31.573,23.53c0,0 1.466,-5.289 -1.347,-9.69c-2.106,-3.294 -10.288,-5.185 -14.271,-5.928c-0.584,-0.108 -1.185,0.048 -1.643,0.424c-0.459,0.376 -0.729,0.936 -0.738,1.529c-0.041,3.013 0.538,8.394 4.539,12.696c5.897,6.34 11.144,3.876 11.144,3.876"
   style="fill:none;stroke:#222a33;stroke-width:1.5px;"
   id="path11" />

  <path
   d="M37.526,24.015c0,0 -1.84,-3.921 -0.233,-7.717c1.14,-2.691 6.685,-5.123 9.818,-6.311c0.568,-0.215 1.202,-0.162 1.727,0.143c0.525,0.305 0.884,0.83 0.979,1.43c0.359,2.418 0.407,6.336 -1.948,9.922c-3.75,5.712 -8.157,4.488 -8.157,4.488"
   style="fill:none;stroke:#222a33;stroke-width:1.5px;"
   id="path13" />

  <path
   d="M27.975,20.119l-5.549,0"
   style="fill:none;stroke:#222a33;stroke-width:1.5px;"
   id="path15" />

</svg>
